<svg width="799" height="802" viewBox="0 0 799 802" fill="none" xmlns="http://www.w3.org/2000/svg">
<rect width="799" height="802" fill="white"/>
<path d="M400 493.105C369.048 493.105 342.738 482.36 321.071 460.868C299.405 439.377 288.571 413.281 288.571 382.579V161.526C288.571 130.825 299.405 104.728 321.071 83.2368C342.738 61.7456 369.048 51 400 51C430.952 51 457.262 61.7456 478.929 83.2368C500.595 104.728 511.429 130.825 511.429 161.526V382.579C511.429 413.281 500.595 439.377 478.929 460.868C457.262 482.36 430.952 493.105 400 493.105ZM372.857 751C367.334 751 362.857 746.523 362.857 741V646.464C362.857 641.453 359.139 637.234 354.193 636.422C293.685 626.491 243.335 598.368 203.143 552.053C163.239 506.069 142.248 452.912 140.171 392.582C139.981 387.062 144.477 382.579 150 382.579H204.286C209.809 382.579 214.259 387.061 214.523 392.577C216.757 439.25 234.791 479.366 268.626 512.926C304.852 548.86 348.644 566.814 400 566.789C451.356 566.765 495.16 548.798 531.411 512.889C565.266 479.354 583.291 439.254 585.486 392.587C585.746 387.067 590.197 382.579 595.724 382.579H650C655.523 382.579 660.019 387.062 659.829 392.582C657.752 452.912 636.761 506.069 596.857 552.053C556.665 598.368 506.315 626.492 445.807 636.422C440.861 637.234 437.143 641.453 437.143 646.464V741C437.143 746.523 432.666 751 427.143 751H372.857Z" fill="black"/>
</svg>
