<svg width="799" height="802" viewBox="0 0 799 802" fill="none" xmlns="http://www.w3.org/2000/svg">
<rect width="799" height="802" fill="white"/>
<path fill-rule="evenodd" clip-rule="evenodd" d="M202 170H173C167.477 170 163 174.477 163 180V209V283C163 288.523 167.477 293 173 293H192C197.523 293 202 288.523 202 283V219C202 213.477 206.477 209 212 209H276C281.523 209 286 204.523 286 199V180C286 174.477 281.523 170 276 170H202Z" fill="black"/>
<path fill-rule="evenodd" clip-rule="evenodd" d="M508 170H537C542.523 170 547 174.477 547 180V209V283C547 288.523 542.523 293 537 293H518C512.477 293 508 288.523 508 283V219C508 213.477 503.523 209 498 209H434C428.477 209 424 204.523 424 199V180C424 174.477 428.477 170 434 170H508Z" fill="black"/>
<path fill-rule="evenodd" clip-rule="evenodd" d="M524 544H508H434C428.477 544 424 539.523 424 534V515C424 509.477 428.477 505 434 505H498C503.523 505 508 500.523 508 495V431C508 425.477 512.477 421 518 421H524H537H543C548.523 421 553 425.477 553 431V495C553 500.523 557.477 505 563 505H627C632.523 505 637 509.477 637 515V534C637 539.523 632.523 544 627 544H553H537H524Z" fill="black"/>
<path fill-rule="evenodd" clip-rule="evenodd" d="M524 509H508H434C428.477 509 424 513.477 424 519V538C424 543.523 428.477 548 434 548H498C503.523 548 508 552.477 508 558V622C508 627.523 512.477 632 518 632H524H537H543C548.523 632 553 627.523 553 622V558C553 552.477 557.477 548 563 548H627C632.523 548 637 543.523 637 538V519C637 513.477 632.523 509 627 509H553H537H524Z" fill="black"/>
<path fill-rule="evenodd" clip-rule="evenodd" d="M202 544H173C167.477 544 163 539.523 163 534V505V431C163 425.477 167.477 421 173 421H192C197.523 421 202 425.477 202 431V495C202 500.523 206.477 505 212 505H276C281.523 505 286 509.477 286 515V534C286 539.523 281.523 544 276 544H202Z" fill="black"/>
</svg>
