<svg width="799" height="802" viewBox="0 0 799 802" fill="none" xmlns="http://www.w3.org/2000/svg">
<rect width="799" height="802" fill="white"/>
<path fill-rule="evenodd" clip-rule="evenodd" d="M656 400.5C656 542.161 541.161 657 399.5 657C257.839 657 143 542.161 143 400.5C143 258.839 257.839 144 399.5 144C541.161 144 656 258.839 656 400.5ZM399.5 541C477.096 541 540 478.096 540 400.5C540 322.904 477.096 260 399.5 260C321.904 260 259 322.904 259 400.5C259 478.096 321.904 541 399.5 541ZM399.5 556C485.38 556 555 486.38 555 400.5C555 314.62 485.38 245 399.5 245C313.62 245 244 314.62 244 400.5C244 486.38 313.62 556 399.5 556ZM399.5 437C419.658 437 436 420.658 436 400.5C436 380.342 419.658 364 399.5 364C379.342 364 363 380.342 363 400.5C363 420.658 379.342 437 399.5 437Z" fill="black"/>
</svg>
