<svg width="799" height="802" viewBox="0 0 799 802" fill="none" xmlns="http://www.w3.org/2000/svg">
<rect width="799" height="802" fill="white"/>
<path fill-rule="evenodd" clip-rule="evenodd" d="M399.5 657C541.161 657 656 542.161 656 400.5C656 258.839 541.161 144 399.5 144C257.839 144 143 258.839 143 400.5C143 542.161 257.839 657 399.5 657ZM288 294C288 291.239 290.239 289 293 289H506C508.761 289 511 291.239 511 294V507C511 509.761 508.761 512 506 512H293C290.239 512 288 509.761 288 507V294ZM273 294C273 282.954 281.954 274 293 274H506C517.046 274 526 282.954 526 294V507C526 518.046 517.046 527 506 527H293C281.954 527 273 518.046 273 507V294Z" fill="black"/>
</svg>
